<svg width="84" height="96" viewBox="0 0 84 96" fill="none" xmlns="http://www.w3.org/2000/svg">
<path d="M3.78868 19.0213H17.2836C18.3429 19.0213 19.3237 19.5799 19.864 20.4911L27.4731 33.3221C28.0339 34.2678 28.0325 35.4444 27.4694 36.3887L21.9519 45.6427C21.4107 46.5504 20.4319 47.1064 19.3751 47.1064H4.6922C3.66543 47.1064 2.70997 46.5813 2.15959 45.7145L2 45.4631" stroke="white" stroke-width="3" stroke-linecap="round"/>
<path d="M32.0449 2L24.9397 14.766C24.4348 15.6731 24.4348 16.7768 24.9397 17.6839L32.4052 31.0973C32.9347 32.0485 33.9379 32.6383 35.0266 32.6383H46.2822C47.3633 32.6383 48.3608 32.0566 48.8932 31.1157L56.3997 17.8498C56.9626 16.855 56.9113 15.6268 56.2674 14.6824L56.2534 14.6617" stroke="white" stroke-width="3" stroke-linecap="round"/>
<path d="M62.5511 19.0213L53.9537 33.6047C53.4039 34.5373 53.3992 35.6937 53.9414 36.6307L59.629 46.46C60.1653 47.3867 61.1549 47.9574 62.2256 47.9574H78.3022C79.4103 47.9574 80.4282 47.3466 80.9495 46.3688L82 44.3985" stroke="white" stroke-width="3" stroke-linecap="round"/>
<path d="M59.6547 52.2128L53.8814 62.6891C53.374 63.6098 53.3856 64.729 53.912 65.6391L61.032 77.9489C61.5682 78.8759 62.558 79.4468 63.6289 79.4468H74.5998C75.6011 79.4468 76.5364 78.9473 77.0932 78.1151L77.7447 77.1413" stroke="white" stroke-width="3" stroke-linecap="round"/>
<path d="M33.4894 65.8298H45.3803C46.4604 65.8298 47.4571 66.4104 47.9899 67.3499L54.7891 79.3392C55.3036 80.2463 55.31 81.3554 54.8063 82.2684L48.3803 93.9149" stroke="white" stroke-width="3" stroke-linecap="round"/>
<path d="M21.0974 51.3617L27.5157 62.5564C28.0519 63.4916 28.045 64.6427 27.4978 65.5715L19.691 78.8208C19.1517 79.7361 18.1686 80.2979 17.1063 80.2979H4.55319" stroke="white" stroke-width="3" stroke-linecap="round"/>
<path d="M15.1809 30.387C15.1809 32.9895 13.4355 34.7952 11.6266 34.7952C9.81775 34.7952 8.07228 32.9895 8.07228 30.387C8.07228 27.7844 9.81775 25.9787 11.6266 25.9787C13.4355 25.9787 15.1809 27.7844 15.1809 30.387Z" stroke="white" stroke-width="2"/>
<path d="M8.49551 35.226C6.977 35.6815 4.535 36.9026 4.55329 38.6558C4.56331 39.6156 5.64762 40.0649 6.60743 40.0649H16.6772C17.775 40.0649 18.9135 39.4179 18.7227 38.3368C18.535 37.2728 17.6736 36.0542 15.327 35.226" stroke="white" stroke-width="2" stroke-linecap="round"/>
<path d="M35.4905 15.3611V14.2225H37.1984V15.3611L38.9062 15.9304L39.7602 15.0765L40.8988 16.4997L40.0448 17.3536L40.6141 18.7768H42.0373V20.4847H40.8988L40.3295 21.9079L40.8988 23.0465L39.7602 24.1851L38.6216 23.3312L37.1984 23.9005V25.039H35.4905V24.1851L34.0673 23.3312L33.2133 24.1851L31.7901 23.0465L32.644 22.1926L32.3594 20.4847H30.9362V18.7768H32.0748L32.644 17.3536L32.0748 16.4997L33.2133 15.3611L34.0673 15.9304L35.4905 15.3611Z" stroke="white" stroke-linecap="round"/>
<path d="M45.4166 8.42474V7.10638H47.431V8.42474L49.4454 9.08392L50.4526 8.09515L51.7956 9.7431L50.7883 10.7319L51.4598 12.3798H53.1385V14.3574H51.7956L51.1241 16.0053L51.7956 17.3237L50.4526 18.642L49.1097 17.6532L47.431 18.3124V19.6308H45.4166V18.642L43.7379 17.6532L42.7307 18.642L41.052 17.3237L42.0592 16.3349L41.7235 14.3574H40.0448V12.3798H41.3877L42.0592 10.7319L41.3877 9.7431L42.7307 8.42474L43.7379 9.08392L45.4166 8.42474Z" stroke="white" stroke-linecap="round"/>
<circle cx="36.6291" cy="19.6308" r="1.20787" stroke="white"/>
<path d="M66.4106 40.3496V36.3645M66.4106 40.3496H70.5379M66.4106 40.3496L70.5379 36.3645M66.4106 36.3645H70.5379M66.4106 36.3645L70.5379 40.3496M74.6653 36.3645V40.3496M74.6653 36.3645H70.5379M74.6653 36.3645V32.3795M74.6653 36.3645L70.5379 32.3795M74.6653 36.3645L70.5379 40.3496M74.6653 40.3496H70.5379M74.6653 40.3496L70.5379 36.3645M70.5379 36.3645V32.3795M70.5379 36.3645L74.6653 32.3795M70.5379 36.3645V40.3496M70.5379 32.3795H74.6653M62.4255 40.3496V29.2484L70.3956 24.9787L78.6503 29.2484V40.3496H76.6578V30.387H64.4181V40.3496H62.4255Z" stroke="white" stroke-linecap="round"/>
<circle cx="46.5917" cy="13.6532" r="1.49252" stroke="white"/>
<path d="M71.7113 59.5242C69.8896 58.6133 66.9672 59.1447 65.7337 59.5242C59.13 62.4845 61.8436 67.3994 64.0259 69.4868V72.6179L67.157 70.6254C68.9597 70.838 72.736 70.7726 73.4192 68.8095M71.7113 59.5242C73.9885 59.1447 78.8274 59.3534 79.966 63.2246C80.1558 64.4581 79.966 67.1527 77.6889 68.0636V70.3407L75.127 68.6329C74.6789 68.7383 74.0799 68.8159 73.4192 68.8095M71.7113 59.5242C67.6124 61.1182 67.916 64.5529 68.5802 66.071C69.5669 68.2089 71.7016 68.793 73.4192 68.8095" stroke="white" stroke-linecap="round"/>
<circle cx="43.7021" cy="78.5958" r="2.40426" stroke="white" stroke-width="2"/>
<path d="M46.4287 88.7941H41.6212C39.6982 88.9954 39.3777 87.0327 39.4578 86.0262C40.179 82.2516 43.0245 82 43.7846 82C44.5057 82 47.1498 82.7549 47.871 86.0262C48.3055 87.9975 46.9896 88.7103 46.4287 88.7941Z" stroke="white" stroke-width="2" stroke-linecap="round"/>
<path d="M44.5532 74.0881V73.9362C44.5532 72.2793 43.21 70.9362 41.5532 70.9362H33.0851C31.4283 70.9362 30.0851 72.2793 30.0851 73.9362V78.3617C30.0851 80.0185 31.4283 81.3617 33.0851 81.3617H33.8269M33.8269 81.3617H38.5362C38.8935 81.3617 39.1256 81.7381 38.9652 82.0574V82.0574C38.7207 82.544 38.2227 82.8511 37.6782 82.8511H36.4258C35.4252 82.8511 34.4904 82.3521 33.9335 81.5208L33.8269 81.3617Z" stroke="white" stroke-width="2" stroke-linecap="round"/>
<path d="M35.1915 78.231C35.6821 78.3011 36.3848 78.3378 37.0246 78.2469M38.3339 73.8541C37.8375 73.7965 37.3999 73.7662 37.0246 73.7696M37.0246 72.6383V73.7696M37.0246 73.7696C35.8161 73.7808 35.2535 74.1422 35.4534 75.0699C35.7152 76.2857 38.5957 76.0426 38.5957 77.0152C38.5957 77.7882 37.8645 78.1276 37.0246 78.2469M37.0246 78.2469V79.4468" stroke="white" stroke-linecap="round"/>
<path d="M2.85107 57.7254C4.27429 58.9589 8.08854 60.6857 11.9597 57.7254M2.85107 57.7254C6.49453 55.4483 10.4416 56.7766 11.9597 57.7254M2.85107 57.7254V60.1449M11.9597 57.7254V60.0026M8.54397 68.8266C5.81138 69.5097 3.61012 68.1624 2.85107 67.4034V64.9839M2.85107 62.5644C6.94996 64.6138 10.6314 63.2286 11.9597 62.2797V60.0026M2.85107 62.5644V60.1449M2.85107 62.5644V64.9839M11.9597 60.0026C10.5365 61.0463 6.72224 62.5359 2.85107 60.1449M2.85107 64.9839C3.61012 65.5057 5.86831 66.5494 8.82862 66.5494M13.3829 57.7254C14.7113 57.4408 17.6526 57.1561 18.7912 58.2947M18.7912 58.2947C18.0322 59.0538 15.8878 60.2872 13.3829 59.1486M18.7912 58.2947V60.5719M18.7912 66.5494V64.5569V63.5606M18.7912 60.5719C17.5577 61.0463 14.6923 61.7105 13.0983 60.5719M18.7912 60.5719V62.5644M18.7912 62.5644C17.5577 62.849 14.6923 63.2475 13.0983 62.5644M18.7912 62.5644V63.5606M18.7912 63.5606C18.8861 63.8927 18.7343 64.5569 17.368 64.5569" stroke="white" stroke-linecap="round"/>
<path d="M18.0066 67.9727C18.0066 70.398 16.1632 72.3116 13.9522 72.3116C11.7412 72.3116 9.8979 70.398 9.8979 67.9727C9.8979 65.5473 11.7412 63.6337 13.9522 63.6337C16.1632 63.6337 18.0066 65.5473 18.0066 67.9727Z" stroke="white"/>
<path d="M14.8062 65.9801C14.0471 65.6955 12.4721 65.4108 12.2444 66.5494C12.1495 66.929 12.3013 67.688 13.6676 67.688C14.2369 67.688 15.0908 67.688 15.3755 67.9727C15.7921 68.3893 16.2294 69.3959 15.0908 69.9652C14.2369 70.2498 12.529 70.4775 12.529 69.1112M13.6676 65.1262L13.6676 70.8191" stroke="white" stroke-linecap="round"/>
<path d="M30.1662 54.8091C29.634 54.8091 29.1432 54.6724 28.694 54.399C28.2497 54.1255 27.8932 53.7618 27.6247 53.3077C27.361 52.8487 27.2292 52.3458 27.2292 51.7989V51.1104C27.2292 51.0567 27.2536 51.0298 27.3024 51.0298H28.987C29.026 51.0298 29.0456 51.0567 29.0456 51.1104V51.7989C29.0456 52.126 29.1554 52.4092 29.3752 52.6485C29.5949 52.8829 29.8586 53.0001 30.1662 53.0001C30.4787 53.0001 30.7448 52.8804 30.9645 52.6412C31.1842 52.397 31.2941 52.1163 31.2941 51.7989C31.2941 51.4327 31.0549 51.1128 30.5763 50.8394C30.4982 50.7906 30.3957 50.732 30.2687 50.6636C30.1467 50.5904 30.0002 50.5074 29.8293 50.4146C29.6584 50.3218 29.4924 50.2315 29.3312 50.1436C29.1701 50.0508 29.0138 49.9629 28.8625 49.8799C28.3156 49.5577 27.9079 49.1548 27.6393 48.6714C27.3757 48.1832 27.2438 47.6363 27.2438 47.0308C27.2438 46.4742 27.3805 45.9712 27.654 45.522C27.9274 45.0777 28.2839 44.7261 28.7233 44.4673C29.1676 44.2037 29.6486 44.0718 30.1662 44.0718C30.6984 44.0718 31.1867 44.2037 31.631 44.4673C32.0754 44.7359 32.4294 45.0923 32.693 45.5367C32.9616 45.981 33.0959 46.4791 33.0959 47.0308V48.2613C33.0959 48.3003 33.0763 48.3199 33.0373 48.3199H31.3527C31.3136 48.3199 31.2941 48.3003 31.2941 48.2613L31.2795 47.0308C31.2795 46.6793 31.1696 46.3936 30.9499 46.1739C30.7301 45.9542 30.4689 45.8443 30.1662 45.8443C29.8586 45.8443 29.5949 45.9615 29.3752 46.1959C29.1554 46.4302 29.0456 46.7085 29.0456 47.0308C29.0456 47.358 29.1139 47.6314 29.2507 47.8511C29.3923 48.0709 29.6486 48.2808 30.0197 48.481C30.0588 48.5005 30.1491 48.5494 30.2907 48.6275C30.4323 48.7056 30.5885 48.7935 30.7594 48.8912C30.9352 48.9839 31.0939 49.0694 31.2355 49.1475C31.3771 49.2208 31.4626 49.2647 31.4919 49.2794C31.9899 49.5577 32.383 49.8995 32.6711 50.3047C32.964 50.71 33.1105 51.2081 33.1105 51.7989C33.1105 52.3702 32.9787 52.8829 32.715 53.337C32.4465 53.7911 32.09 54.15 31.6457 54.4136C31.2013 54.6773 30.7082 54.8091 30.1662 54.8091ZM37.0436 54.6627H35.2272C35.1833 54.6627 35.1589 54.6382 35.154 54.5894L33.3815 44.2842C33.3717 44.2452 33.3864 44.2256 33.4255 44.2256H35.11C35.1491 44.2256 35.1735 44.2452 35.1833 44.2842L36.1427 51.0591L37.1315 44.2842C37.1413 44.2452 37.1706 44.2256 37.2194 44.2256H38.5744C38.6134 44.2256 38.6379 44.2452 38.6476 44.2842L39.6217 51.0591L40.5959 44.2842C40.6056 44.2452 40.6301 44.2256 40.6691 44.2256H42.339C42.3879 44.2256 42.4074 44.2452 42.3976 44.2842L40.6105 54.5894C40.6056 54.6089 40.591 54.626 40.5666 54.6407L40.5373 54.6627H38.7209C38.6916 54.6627 38.6672 54.6382 38.6476 54.5894L37.8786 49.2061L37.1169 54.5894C37.112 54.6382 37.0876 54.6627 37.0436 54.6627ZM45.0343 54.6627H43.3351C43.2961 54.6627 43.2765 54.6382 43.2765 54.5894L43.3058 44.2842C43.3058 44.2452 43.3254 44.2256 43.3644 44.2256H45.1955C45.2345 44.2256 45.2687 44.2452 45.298 44.2842L46.6676 46.2618L48.03 44.2842C48.0592 44.2452 48.0959 44.2256 48.1398 44.2256H49.9782C50.0221 44.2256 50.0441 44.2452 50.0441 44.2842L50.0734 54.5894C50.0734 54.6382 50.0539 54.6627 50.0148 54.6627H48.3156C48.2765 54.6627 48.257 54.6382 48.257 54.5894L48.2424 46.9356L46.6676 49.2208L45.1076 46.9356L45.0929 54.5894C45.0929 54.6382 45.0734 54.6627 45.0343 54.6627ZM53.1056 54.6627H51.4064C51.3576 54.6627 51.3332 54.6382 51.3332 54.5894L51.3478 44.2842C51.3478 44.2452 51.3674 44.2256 51.4064 44.2256H53.091C53.1301 44.2256 53.1496 44.2452 53.1496 44.2842L53.1642 54.5894C53.1642 54.6382 53.1447 54.6627 53.1056 54.6627Z" fill="white"/>
</svg>
